<svg id="Ebene_4" data-name="Ebene 4" xmlns="http://www.w3.org/2000/svg" viewBox="0 0 724.14 601.28"><defs><style>.cls-1{fill:#afafaf;}.cls-2{fill:#3d74bd;}.cls-3{fill:#ad3f59;}.cls-4{fill:#1b507f;}</style></defs><path class="cls-1" d="M1188,342.9c7.21-11.47,15.75-22,24.61-32.11,7.8-8.92,21.06-7,27.52,2.94.58.89,1.26,1.94,1.92,2.92a11.86,11.86,0,0,1,1.85,4.52c.44,2.6.36,5.78-1.09,7.74-7.47,10-12.92,21.27-19.67,31.73-1.36,2.13-2.85,4.17-4.29,6.26C1208.66,358.83,1199.12,349.88,1188,342.9Z" transform="translate(-520.03 -305.06)"/><path class="cls-2" d="M1117.46,619.1c-13.22.17-38.26,5.17-51.46,3.9-5.12-9.6-1.49-21.09-8.2-29.43-15.37-19.12-31.38-37.72-46.89-56.72-7.81-9.57-23.11-18.52-37.78-13q-25,8.11-50,16.23c-10.91,3.57-21.91,7.17-33.45,7.29-26.72.29-53.45,0-80.18,0,0-.33.06-.66.08-1,8.83-3.07,13.88-9.51,13.63-17.38s-5-13.72-13.64-16.66c0-.32,0-.63-.07-1,16.45-.08,32.95-1.05,49.32,0,21.53,1.38,41.12-3.54,60.43-12.71,21.8-10.36,44.31-19.25,66.51-28.78C993,480,1002.16,483.1,1011,478.51c7.87-4.12,10.82-13.36,7.6-23.81,14-3.42,26.49-10.44,39.62-15.92,24.86-10.35,49.44-21.37,74.29-31.74a29.55,29.55,0,0,0,12.54-9.66q20.35-26.44,40.87-52.76a11.42,11.42,0,0,1,2.16-1.72c11.08,7,20.62,15.93,30.85,24-12.58,21.2-24.7,42.69-37.93,63.48-8.77,13.79-23.93,20.05-37.53,27.9-15.47,8.91-30.92,17.87-46.52,26.53-3.64,2-4.73,3.85-3.78,8.16,9,40.73,17.73,81.52,26.49,122.3a29.25,29.25,0,0,1,.31,4.2l-1.51-.28" transform="translate(-520.03 -305.06)"/><path class="cls-3" d="M652.86,726.8c-2.32.21-4.78,0-6.93.7-11.64,3.94-21.57.66-30.7-6.72s-18-15.2-30.45-16.36c-7.45-.7-14.92-.36-22.43-1.3-9.24-1.16-15.63-5.73-20.77-12.86-6.15-8.54-11.16-17.84-18.66-25.5-5.21-5.32-3.16-11.51,4.44-14,25.78-8.63,51.67-16.9,77.51-25.33,7.12-2.33,14.21-4.75,21.31-7.12,8,2.47,15.93,1.48,23.9.09,1.89,2,4.38,1.28,6.63,1.28,13.83.06,27.65,0,41.48,0C715,625.7,730.76,633.91,747,641.08c18.65,8.22,37.18,16.74,55.63,25.4,7.75,3.64,11,10.78,7.48,17.25-5.41,9.82-12.19,18.17-24.89,19.37-5.36.51-10.69,1-16.06,1.08-8.86.08-17.19,1.93-24.54,7.1-8.57,6-16.15,13.56-26.13,17.53-.61.25-.79,1.59-1.17,2.42-12.87-2.16-25.17-6.63-37.84-9.43C670.5,719.81,660.93,720.85,652.86,726.8Z" transform="translate(-520.03 -305.06)"/><path class="cls-4" d="M1117.46,619.1l.46.22.5-.13,1.51.28c1.45,6.38,3.38,12.7,4.24,19.17,1.66,12.49-2.81,22.91-11.72,31.74-21.17,21-42.08,42.25-63.36,63.13-3.88,3.8-4.22,6.59-1.79,11.38,17.92,35.32,35.53,70.8,53.2,106.26,1.12,2.25,3,4.27,2.68,7.09-2.94.73-5.85,1.58-8.82,2.18-13,2.65-25.51,7.52-38.83,8.77-18.14-33.44-35.77-67.17-54.64-100.2-8.95-15.67-13.47-30.76-5-47.75l-.11.07,2.3-1.48a9.8,9.8,0,0,1,.78-2q33.07-49.18,66.2-98.35" transform="translate(-520.03 -305.06)"/><path class="cls-4" d="M1065.05,619.53q-33.1,49.17-66.2,98.35a9.8,9.8,0,0,0-.78,2c-1.29-.31-2.45-.44-2.3,1.48l.11-.07c-1.49-1.5-2.56,0-3.54.66C980.53,729.55,968.79,737.33,957,745c-2.48,1.6-4.06,3.86-5.74,6.1Q906,811.34,860.8,871.62c-1.39,1.85-3,3.54-4.53,5.31-11.31-.84-22.39-4.27-33.9-3a11.17,11.17,0,0,1-4.37-4.36c1-1.57,2.09-3.1,3.07-4.7q40.32-66,80.59-132.14a117.82,117.82,0,0,1,27.75-31.48q51.27-40.74,102.31-81.77Z" transform="translate(-520.03 -305.06)"/><path class="cls-1" d="M818,869.55a11.17,11.17,0,0,0,4.37,4.36c7.8,6.11,15.47,12.4,23.46,18.25,3.9,2.85,5.48,6.08,4.29,10.71-1.87,2.45-4.36,3.25-7.4,3.22-10.81-.12-21.61,0-32.42-.14-9.43-.11-16.18-5-21.92-12.11q-29.67-36.84-59.7-73.38c-7.09-8.6-7.34-8.24-14.52.26-10.16,12-20.22,24.13-30.85,35.72-4,4.4-4.44,8.1-2,13.14,4.1,8.44,7.91,17,11.68,25.62,3.42,7.81,1.39,10.21-7.25,10.94-16.6,1.41-28.15-4.63-34.26-20.63-2.42-6.33-5.78-12.34-9.06-18.3-3.63-6.59-2.7-12.13,1.73-18.18,15.79-21.61,31.12-43.55,46.78-65.26,2.69-3.72,3.2-6.15-.22-10.2-12.94-15.31-25.29-31.13-37.86-46.77,8.07-5.95,17.64-7,26.65-5,12.67,2.8,25,7.27,37.85,9.43,9,12.37,18.07,24.65,26.93,37.11,20.11,28.3,39.93,56.81,60.31,84.92C808.69,858.89,811.36,865.93,818,869.55Z" transform="translate(-520.03 -305.06)"/><path class="cls-1" d="M677.15,510.9q57,.14,114.1.3c3.28,0,6.56.2,9.84.31-16,8.44-18.72,21.94-6.43,31.83a52.75,52.75,0,0,0,6.54,3.9l-73.3.51-49.59-.06c-14-.68-28.08,1.35-42-1.41-10.77-8.6-13.28-17.94-7.19-27,4.73-7.09,12-8.21,19.72-8.2Z" transform="translate(-520.03 -305.06)"/><path class="cls-1" d="M941.21,406.33c-4.5-3.11-4.65-6.83-2.35-11.57,8.25-17.05,27.84-26.87,45.63-22.58,18.47,4.46,34.19,24.06,33.78,41.9-.17,7.18-3.81,11.8-9.91,14.91-9.94-.18-20.54-.7-27.2-8.61C970.26,407.45,957.8,401.72,941.21,406.33Z" transform="translate(-520.03 -305.06)"/><path class="cls-1" d="M1055.53,869.19c13.32-1.25,25.83-6.12,38.83-8.77,3-.6,5.88-1.45,8.82-2.18,2.48,12.46,1.68,25.07.54,37.51-.62,6.71-6,10.32-13,10.34q-24.26.09-48.49,0c-4,0-7.59-1.48-9.14-5.32s-.32-7.19,2.8-10.1c5.28-4.93,10.33-10.13,15.47-15.23C1053.12,873.65,1055.21,872,1055.53,869.19Z" transform="translate(-520.03 -305.06)"/><path class="cls-1" d="M648.57,474c-5.42,2.07-8.7-.24-11.21-5-5.41-10.34-7-21-3.69-32.32,2.9-9.55,9-16.59,17.26-21.89,9.62-5.59,19.9-8.21,31-6.87,8.51,1,11.84,4.12,13.68,12.53-.46,6-4.14,9.81-8.85,12.83C670.59,443.64,658.49,457.81,648.57,474Z" transform="translate(-520.03 -305.06)"/><path class="cls-3" d="M636.3,546.28c13.93,2.76,28,.73,42,1.41-1.22,6.5-4.73,12.13-7.07,18.2-6.77,17.6-15.44,34.44-21.16,52.46-8,1.39-15.94,2.38-23.9-.09Q631.25,582.26,636.3,546.28Z" transform="translate(-520.03 -305.06)"/><path class="cls-1" d="M650.93,414.8c-8.29,5.3-14.36,12.34-17.26,21.89-17.86,4-31.57-9.2-30.78-24.46a23.76,23.76,0,0,1,22.69-22.64c12.5-.5,22.64,7.84,24.7,20.33C650.55,411.54,650.72,413.18,650.93,414.8Z" transform="translate(-520.03 -305.06)"/><path class="cls-1" d="M801.2,547.24a52.75,52.75,0,0,1-6.54-3.9c-12.29-9.89-9.53-23.39,6.43-31.83l4.26-.21c1.17,1.3,2.71,1.06,4.2,1,8.6,2.94,13.39,8.8,13.64,16.66s-4.8,14.31-13.63,17.38c-1.5-.06-3-.28-4.22,1Z" transform="translate(-520.03 -305.06)"/><path class="cls-1" d="M850.12,902.87c1.19-4.63-.39-7.86-4.29-10.71-8-5.85-15.66-12.14-23.46-18.25,11.51-1.25,22.59,2.18,33.9,3,0,6.11.2,12.23-.17,18.31C855.88,898.84,855.65,903.12,850.12,902.87Z" transform="translate(-520.03 -305.06)"/><path class="cls-1" d="M809.55,512.32c-1.49,0-3,.28-4.2-1l4.13.07C809.51,511.69,809.53,512,809.55,512.32Z" transform="translate(-520.03 -305.06)"/><path class="cls-2" d="M1031.72,619.46c-6.56-13.48-15.37-25.61-23.13-38.36-11.68-19.17-23.63-38.17-35.46-57.24,14.67-5.53,30,3.42,37.78,13,15.51,19,31.52,37.6,46.89,56.72,6.71,8.34,14.89,15.54,20,25.14-4.18,1.43-8.53.22-12.76.82Z" transform="translate(-520.03 -305.06)"/><path class="cls-1" d="M809.48,547.35l-4.14,0c1.17-1.31,2.72-1.09,4.22-1C809.54,546.69,809.51,547,809.48,547.35Z" transform="translate(-520.03 -305.06)"/><path class="cls-3" d="M727.9,547.75q-13.15,31-26.29,62c-1.35,3.2-3.33,6.2-3.42,9.85-13.83,0-27.65.05-41.48,0-2.25,0-4.74.77-6.63-1.28,5.72-18,14.39-34.86,21.16-52.46,2.34-6.07,5.85-11.7,7.07-18.2Z" transform="translate(-520.03 -305.06)"/><path class="cls-4" d="M995.77,721.31c-.15-1.92,1-1.79,2.3-1.48Z" transform="translate(-520.03 -305.06)"/></svg>