<?xml version="1.0" encoding="utf-8"?>
<!-- Generator: Adobe Illustrator 26.0.1, SVG Export Plug-In . SVG Version: 6.00 Build 0)  -->
<svg version="1.1" xmlns="http://www.w3.org/2000/svg" xmlns:xlink="http://www.w3.org/1999/xlink" x="0px" y="0px"
	 viewBox="0 0 1920 1080" style="enable-background:new 0 0 1920 1080;" xml:space="preserve">
<style type="text/css">
	.st0{display:none;}
	.st1{display:inline;fill:#FFFFFF;stroke:#000000;stroke-miterlimit:10;}
	.st2{fill:#FFFFFF;stroke:#000000;stroke-miterlimit:10;}
	.st3{display:none;fill:#FFFFFF;stroke:#000000;stroke-miterlimit:10;}
</style>
<g id="Ebene_1" class="st0">
	<polygon class="st1" points="866.5,695.5 926.5,265.5 1260.75,265.5 1260.75,363.25 1004.5,363.25 955.75,695.5 	"/>
	<path class="st1" d="M1248.5,456.5h-212c-6.6,0-12-5.4-12-12v-39c0-6.6,5.4-12,12-12h212c6.6,0,12,5.4,12,12v39
		C1260.5,451.1,1255.1,456.5,1248.5,456.5z"/>
	<path class="st1" d="M1218.5,540.5h-153c-6.6,0-12-5.4-12-12v-36c0-6.6,5.4-12,12-12h153c6.6,0,12,5.4,12,12v36
		C1230.5,535.1,1225.1,540.5,1218.5,540.5z"/>
	<path class="st1" d="M1188.5,608.5h-93c-6.6,0-12-5.4-12-12v-20c0-6.6,5.4-12,12-12h93c6.6,0,12,5.4,12,12v20
		C1200.5,603.1,1195.1,608.5,1188.5,608.5z"/>
	<ellipse class="st1" cx="818.5" cy="695.5" rx="138" ry="87"/>
	<ellipse class="st1" cx="1612.5" cy="507" rx="225" ry="241.5"/>
	<ellipse class="st1" cx="1612.5" cy="510.95" rx="143" ry="153.49"/>
	<ellipse class="st1" cx="1612.5" cy="555.5" rx="98" ry="61"/>
	<polyline class="st1" points="1515.5,544.5 1417.5,760.5 1515.5,760.5 1582.86,602.45 	"/>
</g>
<g id="Ebene_2" class="st0">
	<path class="st1" d="M826.68,307.8l-20.67,84.51L618.2,346.37c-17.67-4.32-35.5,6.5-39.82,24.17L519.8,609.97
		c-6.17,35.19-52.75,62.53-109.3,62.53c-60.75,0-110-31.56-110-70.5c0-38.93,49.25-70.5,110-70.5c13.31,0,26.07,1.52,37.88,4.29
		l53.31-217.92l0,0c11.42-46.67,58.51-75.25,105.19-63.84l0,0C606.88,254.03,826.68,307.8,826.68,307.8z"/>
	<path class="st1" d="M596.11,401.27L596.11,401.27c3.91-15.98,20.03-25.77,36.01-21.86L770.2,413.2
		c15.98,3.91,25.77,20.03,21.86,36.01v0c-3.91,15.98-20.03,25.77-36.01,21.86l-138.08-33.78
		C601.98,433.38,592.2,417.25,596.11,401.27z"/>
	<path class="st1" d="M576.27,481.91L576.27,481.91c3.91-15.98,20.03-25.77,36.01-21.86l138.08,33.78
		c15.98,3.91,25.77,20.03,21.86,36.01v0c-3.91,15.98-20.03,25.77-36.01,21.86l-138.08-33.78
		C582.15,514.01,572.36,497.89,576.27,481.91z"/>
	<path class="st1" d="M556.27,562.91L556.27,562.91c3.91-15.98,20.03-25.77,36.01-21.86l138.08,33.78
		c15.98,3.91,25.77,20.03,21.86,36.01v0c-3.91,15.98-20.03,25.77-36.01,21.86l-138.08-33.78
		C562.15,595.01,552.36,578.89,556.27,562.91z"/>
</g>
<g id="Ebene_3" class="st0">
	<path class="st2" d="M1439.46,252.14l-0.14,87l-193.35-0.32c-18.19-0.03-32.96,14.69-32.99,32.89l-0.41,246.49
		c2.31,35.65-36.5,73.21-91.46,86.56c-59.03,14.34-114.34-4.71-123.53-42.55c-9.19-37.83,31.22-80.13,90.25-94.47
		c12.93-3.14,25.69-4.68,37.82-4.77l0.38-224.35v0c0.08-48.05,39.1-86.94,87.15-86.86h0
		C1213.18,251.76,1439.46,252.14,1439.46,252.14z"/>
	<ellipse class="st1" cx="1105.5" cy="611" rx="109" ry="67.5"/>
	<rect x="1127.5" y="251.5" class="st1" width="87" height="359"/>
	<rect x="1283.5" y="182.5" transform="matrix(6.123234e-17 -1 1 6.123234e-17 1032 1622)" class="st1" width="87" height="225"/>
	<path class="st1" d="M1237.5,393.71v-0.42c0-16.45,13.34-29.79,29.79-29.79h142.42c16.45,0,29.79,13.34,29.79,29.79v0.42
		c0,16.45-13.34,29.79-29.79,29.79h-142.42C1250.84,423.5,1237.5,410.16,1237.5,393.71z"/>
	<path class="st1" d="M1237.5,473.71v-0.42c0-16.45,13.34-29.79,29.79-29.79h142.42c16.45,0,29.79,13.34,29.79,29.79v0.42
		c0,16.45-13.34,29.79-29.79,29.79h-142.42C1250.84,503.5,1237.5,490.16,1237.5,473.71z"/>
	<path class="st1" d="M1237.5,553.71v-0.42c0-16.45,13.34-29.79,29.79-29.79h142.42c16.45,0,29.79,13.34,29.79,29.79v0.42
		c0,16.45-13.34,29.79-29.79,29.79h-142.42C1250.84,583.5,1237.5,570.16,1237.5,553.71z"/>
</g>
<g id="Ebene_3_Kopie">
	<path class="st3" d="M1522.29,313.87l-20.67,84.51l-187.81-45.94c-17.67-4.32-35.5,6.5-39.82,24.17l-58.57,239.43
		c-6.17,35.19-52.75,62.53-109.3,62.53c-60.75,0-110-31.56-110-70.5c0-38.93,49.25-70.5,110-70.5c13.31,0,26.07,1.52,37.88,4.29
		l53.31-217.92l0,0c11.42-46.67,58.51-75.25,105.19-63.84v0C1302.49,260.1,1522.29,313.87,1522.29,313.87z"/>
	<g>
		<path d="M1521.29,313.57l-21.05,84.42l-183.99-45.87c-18.96-4.73-38.17,6.81-42.89,25.77l-56.64,227.2
			c-6.45,33.47-52.44,59.41-108.22,59.41c-60.2,0-109-30.22-109-67.5c0-37.28,48.8-67.5,109-67.5c12.78,0,25.05,1.36,36.44,3.87
			l52.45-210.36c11.69-46.9,59.19-75.44,106.09-63.75L1521.29,313.57z"/>
		<path d="M1290.89,402.69l0.1-0.41c3.98-15.96,20.15-25.68,36.11-21.7l138.19,34.46c15.96,3.98,25.68,20.15,21.7,36.11l-0.1,0.41
			c-3.98,15.96-20.15,25.68-36.11,21.7l-138.19-34.46C1296.62,434.82,1286.91,418.65,1290.89,402.69z"/>
		<path d="M1271.53,480.31l0.1-0.41c3.98-15.96,20.15-25.68,36.11-21.7l138.19,34.46c15.96,3.98,25.68,20.15,21.7,36.11l-0.1,0.41
			c-3.98,15.96-20.15,25.68-36.11,21.7l-138.19-34.46C1277.27,512.44,1267.55,496.28,1271.53,480.31z"/>
		<path d="M1252.18,557.94l0.1-0.41c3.98-15.96,20.15-25.68,36.11-21.7l138.19,34.46c15.96,3.98,25.68,20.15,21.7,36.11l-0.1,0.41
			c-3.98,15.96-20.15,25.68-36.11,21.7l-138.19-34.46C1257.91,590.07,1248.2,573.9,1252.18,557.94z"/>
	</g>
</g>
</svg>
