<svg id="Ebene_3_Kopie" data-name="Ebene 3 Kopie" xmlns="http://www.w3.org/2000/svg" viewBox="0 0 521.79 407.86"><defs><style>.cls-1{fill:#fff;}</style></defs><path class="cls-1" d="M1521.29,313.57l-21,84.42-184-45.87a35.38,35.38,0,0,0-42.89,25.77l-56.64,227.2c-6.45,33.47-52.44,59.41-108.22,59.41-60.2,0-109-30.22-109-67.5s48.8-67.5,109-67.5a169.78,169.78,0,0,1,36.44,3.87L1197.39,323a87.52,87.52,0,0,1,106.09-63.75Z" transform="translate(-999.5 -256.64)"/><rect class="cls-1" x="1358.94" y="325.92" width="60" height="202" rx="29.79" transform="translate(-360.81 1414.68) rotate(-76)"/><rect class="cls-1" x="1339.58" y="403.54" width="60" height="202" rx="29.79" transform="translate(-450.8 1454.74) rotate(-76)"/><rect class="cls-1" x="1320.23" y="481.17" width="60" height="202" rx="29.79" transform="translate(-540.79 1494.81) rotate(-76)"/></svg>