<svg id="Ebene_1" data-name="Ebene 1" xmlns="http://www.w3.org/2000/svg" viewBox="0 0 462 121.95">
    <defs>
        <style>* {fill:#fff;} .cls-1{fill:none;}</style>
    </defs>
    <path d="M261.2,114,248,188.5H229.2l1.61-9.41a29.79,29.79,0,0,1-10.62,7.59,32.89,32.89,0,0,1-13.31,2.76q-11.56,0-18.29-6.25t-6.72-17.82a38.33,38.33,0,0,1,.68-7.66l7.66-43.7H209l-7.26,41a28.44,28.44,0,0,0-.4,4.71q0,6.59,3.63,10.14t10.21,3.57a19,19,0,0,0,13-4.77q5.37-4.77,6.86-13.65l7.26-41Z"
          transform="translate(-15 -83.08)"/>
    <path d="M280.9,187a25.15,25.15,0,0,1-10.49-7.66,17.76,17.76,0,0,1-3.83-11.23,28.13,28.13,0,0,1,.27-3.09h18.28a8.68,8.68,0,0,0,2.83,7.6q3.23,2.88,9.14,2.88a18.54,18.54,0,0,0,8.94-1.94,6.2,6.2,0,0,0,3.57-5.72,6.1,6.1,0,0,0-3.3-5.38,61.41,61.41,0,0,0-10.42-4.57,100.82,100.82,0,0,1-11.83-5,24.33,24.33,0,0,1-8.07-6.72,17.2,17.2,0,0,1-3.36-10.9,19,19,0,0,1,3.83-11.69,24.85,24.85,0,0,1,10.69-7.94,41.13,41.13,0,0,1,15.73-2.82,37,37,0,0,1,14.93,2.82,23.42,23.42,0,0,1,10,7.87,19.39,19.39,0,0,1,3.56,11.5,15.9,15.9,0,0,1-.13,2.41H313.77a8.61,8.61,0,0,0-2.69-7.52q-3.09-2.84-9-2.83a14,14,0,0,0-7.94,2.09,6.43,6.43,0,0,0-3.09,5.58c0,2.33,1.16,4.23,3.5,5.71a59.57,59.57,0,0,0,10.75,4.91,109.78,109.78,0,0,1,11.64,5.17,24.19,24.19,0,0,1,7.59,6.46,16.11,16.11,0,0,1,3.23,10.28,18.34,18.34,0,0,1-4.17,12,26,26,0,0,1-11.43,7.8,47,47,0,0,1-16.4,2.69A38.46,38.46,0,0,1,280.9,187Z"
          transform="translate(-15 -83.08)"/>
    <path d="M372,114,358.82,188.5h-19L353,114Zm-14.92-11.43a8.52,8.52,0,0,1-2.69-6.45,12.16,12.16,0,0,1,4.1-9.21,13.61,13.61,0,0,1,9.62-3.84,9.77,9.77,0,0,1,7,2.56,8.51,8.51,0,0,1,2.68,6.45,12.23,12.23,0,0,1-4,9.21,13.38,13.38,0,0,1-9.55,3.84A9.91,9.91,0,0,1,357.07,102.58Z"
          transform="translate(-15 -83.08)"/>
    <path d="M470.08,161.47a51.27,51.27,0,0,1-19.17,20L467.72,205H444.33l-11-16.81a58,58,0,0,1-12.1,1.21,42.18,42.18,0,0,1-20.9-5.05,35.45,35.45,0,0,1-14.06-14,41.57,41.57,0,0,1-5-20.51,58.66,58.66,0,0,1,7.19-29,52.38,52.38,0,0,1,19.9-20.24,56.22,56.22,0,0,1,28.58-7.33,43.16,43.16,0,0,1,21,5,35.09,35.09,0,0,1,14,13.91,41.3,41.3,0,0,1,5,20.37A59.72,59.72,0,0,1,470.08,161.47Zm-63.46,4.24q6.11,6.39,17.27,6.39A31.65,31.65,0,0,0,441.71,167a34.08,34.08,0,0,0,12-13.79,42.51,42.51,0,0,0,4.24-18.89q0-11-6.19-17.34t-17.34-6.32a31.28,31.28,0,0,0-17.68,5.11,34.27,34.27,0,0,0-12,13.71,42.13,42.13,0,0,0-4.24,18.83Q400.49,159.31,406.62,165.71Z"
          transform="translate(-15 -83.08)"/>
    <path d="M109.6,187.5c-1.93,6-10.64,10.5-21.1,10.5C76.63,198,67,192.18,67,185s9.63-13,21.5-13a35.89,35.89,0,0,1,5.27.39l4.59-26a27.89,27.89,0,0,0,.41-4.58q0-6.59-3.63-10t-10.22-3.42a19.39,19.39,0,0,0-12.71,4.37q-5.31,4.36-6.92,12.44L57.6,187.5C55.67,193.48,47,198,36.5,198,24.63,198,15,192.18,15,185s9.63-13,21.5-13a35.07,35.07,0,0,1,5,.35l8-45.35.56-3.15a12.21,12.21,0,0,1,2.06-5.07,14,14,0,0,1,11-5.77H155a14,14,0,0,1,9.9,4.1c1.28,1.29,3.1,4.81,4.15,8.9a46.85,46.85,0,0,1,1.3,10.14,39.08,39.08,0,0,1-.68,7.66l-8,43.7c-1.93,6-10.64,10.5-21.1,10.5-11.87,0-21.5-5.82-21.5-13s9.63-13,21.5-13a34.94,34.94,0,0,1,5.3.4l4.6-26a28.62,28.62,0,0,0,.4-4.71q0-6.45-3.56-9.89t-10.15-3.42A19.48,19.48,0,0,0,123.91,133q-5.39,4.65-6.72,13.39v-.14"
          transform="translate(-15 -83.08)"/>
    <path class="cls-1" d="M57,109l-8,45" transform="translate(-15 -83.08)"/>
</svg>