<svg id="Ebene_3" data-name="Ebene 3" xmlns="http://www.w3.org/2000/svg" viewBox="0 0 637.21 646.82"><defs><style>.cls-1{fill:#3d74bd;}.cls-2{fill:#afafaf;}.cls-3{fill:#665f68;}.cls-4{fill:#ad3f59;}.cls-5{fill:#fcfdfc;}.cls-6{fill:#493e7f;}</style></defs><path class="cls-1" d="M791.32,612.58c-14.39,8.49-26.85,19.33-38.58,31.16-16.32,16.47-30.14,35-44.37,53.19a65.13,65.13,0,0,1-9,13.4c-.67,1.34-1.27,2.73-2,4-7.82,13.21-16,26.24-22.2,40.32C669,762,671,761,662.79,769.39c-4.32,2.68-7.35,6.67-10.72,10.33-9.72,10.57-14.44,24.06-21.27,36.31-2.63,8.48-6.59,16.38-10.38,24.35-2,4.15-3.69,8.3-2.61,13l-4.26.1c-12.79,1.58-25.62,2.84-38.34,4.81-14.56,2.26-14.81,2.85-15.74,17.23l-95.37.06c-.25-6.33-.14-12.81-7.26-16-5-1.21-10.36-1-15.23-3l-30.26-3C406,812.75,401.76,771.75,393,731.44c-.8-3.65-1.69-7.22-4.07-10.22-5.27-3.86-11.32-1-16.92-2-13.54,2.41-27.21,2.67-40.9,2.27-7-.2-13.91-.75-20.86-1.22-6.49-.43-10.07-3.62-9.62-10.47,2.67-17.34,4.15-34.73,1.41-52.23.91-6.59-2.92-12.17-3.91-18.36a330.94,330.94,0,0,0,17.44-29.35l1.12-.93c13.92-5.26,26.88-12.53,39.86-19.65,32.81-18,66.12-34.82,102-46.13,6.94-2.19,7.7-1.74,6.47,5.54a122,122,0,0,0-.94,29.43c1.91,26.08,14.49,46.19,43.55,49.9C530.44,631,556,623.92,568,602.77c10.69-18.92,11.12-39.11,7.21-59.8l1.42-1.13,13.34,3.81c-1.22,9.3-4,18.23-6.45,27.25-.8,3-1.93,6.14,1.79,7.94,3.37,1.63,5-1,7-3.14,7.51-8,12.53-17.75,18.7-26.69,57.32,15.37,115,29.7,169,55.11C783.88,608,787.53,610.41,791.32,612.58Z" transform="translate(-199.12 -263.02)"/><path class="cls-1" d="M316.71,608.93l0,0-.05,0Z" transform="translate(-199.12 -263.02)"/><path class="cls-2" d="M410,542.54c-2.69,3.52-6.66,4-10.71,2.87-2.72-.76-5.28-2.09-8-3-21.86-7.65-40.16-7.13-52.73,19.16-7.52,15.72-16,31-21.95,47.44l.1-.06-1.17,1a330.94,330.94,0,0,1-17.44,29.35c1,6.19,4.82,11.77,3.91,18.36,2.74,17.5,1.26,34.89-1.41,52.23-20.53.06-41.09,1.7-61.5-2.15C210,702.21,195.33,681.07,200,652c3.63-22.84,13.7-42.18,29.5-58.79q23.07-24.27,47.87-46.79c24.06-21.93,45.47-45.93,61.89-74.28,6.11-10.55,13.59-20.31,23.2-28.25,9.32-7.68,19.56-9,30.77-5.78,1.67,9,1.19,18.12,1.08,27.15-.12,11.19,3.67,19.76,13.6,25.29-1.88,5.22-6.17,8.81-9,13.39,6.06,6.2,6.29,8.29,1.61,14.31,3.18,4.4,7.51,7.82,10.19,12.71C413,535.18,412.68,539,410,542.54Z" transform="translate(-199.12 -263.02)"/><path class="cls-3" d="M760.38,875.71c11.83,0,23.66-.24,35.48-.07,9.86.15,16.87,6.86,17.4,16.12.51,8.87-6.29,16.61-15.82,17.87a49.43,49.43,0,0,1-6.56.2q-279.35,0-558.69,0a39.22,39.22,0,0,1-8.47-.65,16.88,16.88,0,0,1-13.46-18.34,16.55,16.55,0,0,1,16.23-15.11c12-.25,24.09,0,36.14,0q46.92,0,93.84.06,53.82,0,107.63-.19l95.37-.06Z" transform="translate(-199.12 -263.02)"/><path class="cls-2" d="M559.24,287.64c3.33.92,6.65,1.92,10,2.93-1.42.46-3.8,1.76-4.21,1.43Q562.12,289.66,559.24,287.64Z" transform="translate(-199.12 -263.02)"/><path class="cls-2" d="M570.35,290.91l-.11,0v-.26A2.47,2.47,0,0,0,570.35,290.91Z" transform="translate(-199.12 -263.02)"/><path class="cls-2" d="M708.37,696.93c14.23-18.2,28-36.72,44.37-53.19,11.73-11.83,24.19-22.67,38.58-31.16,19.1,9.44,35.23,22.07,43.09,42.67,4.12,10.81,1.24,21.1-5,30.53-11,16.6-26.79,28-42.78,39.2-21.19,14.79-44.08,26.82-66.12,40.23-5.37,3.27-8.76,6.22-7.34,13.85,1.46,7.87-1.67,16-4,23.7-2,6.78-2.48,13.07.79,19.63a35.2,35.2,0,0,1,3.6,14.53c.08,2.34-.61,4.53-2.87,5.46-2.55,1.06-4.15-.87-5.3-2.72-2.77-4.45-5.32-9-8-13.55-1.21-2-2.32-5.48-4.54-5.06-2.91.54-2.26,4.44-2.38,6.7-.45,8.52-.28,17.06-.34,25.6-.63,3.21-1.3,6.55-5.4,6.83-5,.35-5.22-4.07-6.61-7.23-1.22-10.41-.56-21.05-3.88-31.19-4-2.23-4.33,1.77-5.35,3.51-5.15,8.87-10,17.93-14.92,26.92-1.46,1.56-2.86,3.18-4.4,4.66-2.06,2-4.46,3.6-7.45,2.85-3.31-.85-3.69-3.79-4-6.63,3.05-12.47,10.71-23.1,13.81-35.71-9.58,10.45-13.88,24.1-21.6,35.62-4.1,2.61-8.24,4.1-12.56.44-1.08-4.74.64-8.89,2.61-13,3.79-8,7.75-15.87,10.38-24.35,6.83-12.25,11.55-25.74,21.27-36.31,3.37-3.66,6.4-7.65,10.71-10.33C668,764,668,763,675.19,754.67c6.22-14.08,14.38-27.11,22.2-40.32.76-1.29,1.36-2.68,2-4A65.13,65.13,0,0,0,708.37,696.93Z" transform="translate(-199.12 -263.02)"/><path class="cls-2" d="M652.08,442.77c-3.42,15.78-5.07,31.94-7.83,47.87-1.89,10.92-7.44,16-18.61,18.13-10.4.69-16.88-4.82-21.33-13.51a31.06,31.06,0,0,1-.26-12.78c1.39-7.38,2.05-14.9,3-22.37,2.16-4.54,2.15-9.53,2.6-14.34,1.12-12,7.72-19.25,19.79-21.2,5.2-.59,9.61,2.08,14.72,4,1-36.25-4.78-70.15-25.77-100.19C606.79,311.75,590.77,305,573,296c-.6-1.08-1.86-.09-3,0l.24-5.12.11,0a2.47,2.47,0,0,1-.1-.29v-.06a.25.25,0,0,0,0-.07c-.14-.14-.51-.08-1,.08-3.32-1-6.64-2-10-2.93a123.19,123.19,0,0,0-26.52-4.88c-38.91-2.17-70.11,13.08-95.71,41.5-2.75,3.05-4.86,6.77-8.62,8.84,2.67-9.42,8.58-17,14.6-24.33,18.69-22.81,42.81-36.33,71.74-41.38a4.94,4.94,0,0,1,.39-.44c23.44-6.79,46.53-4.46,68.67,4.55C629.15,290,652.38,325,657,373.08,659.27,396.58,657.07,419.7,652.08,442.77Z" transform="translate(-199.12 -263.02)"/><path class="cls-4" d="M464.1,875.62q-53.82.11-107.63.19-46.92,0-93.84-.06c.14-1.52.33-3,.42-4.55.52-8.1,3.44-11.11,11.58-12.4,40.13-6.35,80.5-7.31,121-5.6,5.24.22,10.48.26,15.72.38l30.26,3c4.87,2,10.19,1.78,15.23,3C464,862.81,463.85,869.29,464.1,875.62Z" transform="translate(-199.12 -263.02)"/><path class="cls-4" d="M617.81,853.42c4.32,3.66,8.46,2.17,12.56-.44l7.79.09c.29,2.84.67,5.78,4,6.63,3,.75,5.39-.87,7.45-2.85,1.54-1.48,2.94-3.1,4.4-4.66l15,.11,9.13.64c1.39,3.17,1.57,7.59,6.61,7.24,4.1-.28,4.77-3.62,5.4-6.83a388.24,388.24,0,0,1,52.76,4.26c15.08,2.21,16.07,3.29,17.47,18.1l-200.91-.15c.93-14.38,1.18-15,15.74-17.23,12.72-2,25.55-3.23,38.33-4.81Z" transform="translate(-199.12 -263.02)"/><path class="cls-2" d="M625.74,509.12c-3.55,14.46-8.91,28.27-14.81,41.9-6.17,8.93-11.19,18.66-18.7,26.68-2,2.13-3.59,4.77-7,3.14-3.72-1.8-2.59-4.91-1.79-7.94,2.41-9,5.23-17.95,6.45-27.25,1.8-6.83,3.16-13.73,2.91-20.84l-.13.12.18-.47c-15.12-77.78-64.78-147.58-73.5-169.21-2.7-6.69-5.43-13.42-10.42-18.84-5.59-6.06-8.72-6.29-15.15-1.29-9.09,7.08-16.25,16-22.66,25.37-16.26,23.8-33.72,47.14-35.46,77.61-1.71-3.64-1.08-7.7-1.43-11.45-.94-10.16-5.7-16.44-15.38-19.25-.52-.15-.86-.91-1.29-1.39,1.36-32.85,17.38-58.1,40-80.76,49.57-49.75,147.63-30.71,166.69,52.81,3.53,15.48,4.46,31.14,5.29,46.86-12.06,1.95-18.67,9.23-19.79,21.2-.45,4.82-.43,9.8-2.6,14.34-.27,0,3.13,41.55,2.85,41.54l-.64.87C613.4,507.19,618.66,509.59,625.74,509.12Z" transform="translate(-199.12 -263.02)"/><path class="cls-2" d="M570.35,290.91l-.11,0-1-.31c.49-.16.86-.22,1-.08s0,.09,0,.13A2.47,2.47,0,0,0,570.35,290.91Z" transform="translate(-199.12 -263.02)"/><path class="cls-5" d="M315.54,609.9l1.17-1Z" transform="translate(-199.12 -263.02)"/><path class="cls-1" d="M669,852.3l-15-.11c4.94-9,9.77-18.05,14.92-26.92,1-1.74,1.39-5.74,5.35-3.51C670.83,831.65,670.47,842.07,669,852.3Z" transform="translate(-199.12 -263.02)"/><path class="cls-1" d="M638.16,853.07l-7.79-.09c7.72-11.52,12-25.17,21.6-35.62C648.87,830,641.21,840.6,638.16,853.07Z" transform="translate(-199.12 -263.02)"/><path class="cls-6" d="M570.3,290.88" transform="translate(-199.12 -263.02)"/><path class="cls-1" d="M652.17,443.12c-3.41,15.78-5.07,31.94-7.83,47.87-1.88,10.92-7.44,16-18.6,18.13-10.4.69-16.88-4.82-21.34-13.51a31.23,31.23,0,0,1-.26-12.78c1.4-7.38,2.05-14.9,3-22.37a76.6,76.6,0,0,0,2.6-14.34c1.12-12,7.73-19.25,19.79-21.2-.83-15.72-1.76-31.38-5.29-46.86-19.06-83.52-117.12-102.56-166.69-52.81C435,347.91,419,373.16,417.6,406c.43.48.77,1.24,1.29,1.39,9.68,2.81,14.44,9.09,15.38,19.25.35,3.75.81,10.42.73,11.35-.12.46.22,3.83.1,4.29,0,5-.15,10.08.16,15.1.5,8.07,1.72,16.14-1.87,23.87-6.41,8.86-15.15,11.32-25.52,9.28-9.93-5.53-13.72-14.1-13.6-25.29.11-9,.59-18.15-1.08-27.15,0-3.69-.09-7.4,0-11.09.16-7.3,3.76-12.79,9.22-17.28-1.14-22.63,6-43,17.21-62.17,2.83-4.88,5.85-9.64,8.79-14.46,3.76-2.07,5.87-5.79,8.62-8.84,25.6-28.42,56.8-43.67,95.71-41.5,13,.72,25.3,4.4,37.6,8.14a2.8,2.8,0,0,0,2.7,1.24c17.77,8.95,33.86,20,45.47,36.58,21,30,26.76,63.94,25.77,100.19C652,432,653,435,652.17,443.12Z" transform="translate(-199.12 -263.02)"/><path class="cls-5" d="M592.71,524.93c.28-.75.57-1.5.86-2.25C593.28,523.43,593,524.18,592.71,524.93Z" transform="translate(-199.12 -263.02)"/></svg>