<svg id="Ebene_1" data-name="Ebene 1" xmlns="http://www.w3.org/2000/svg" viewBox="0 0 605.55 657.39"><defs><style>.cls-1{fill:#3d74bd;}.cls-2{fill:#afafaf;}.cls-3{fill:#ad3f59;}.cls-4{fill:#665f68;}</style></defs><path class="cls-1" d="M1302.32,761.77H1087c1.82-4.86,6.34-8.41,6.32-14.22-.1-30.32.16-60.65-.17-91-.11-10.27-5.64-16-16.58-15.74-7.95.19-15.91-.12-23.87-.2-.15-22.19-10.41-34.55-31.22-37.6-26.28-3.85-26.28-3.85-30.94-30a10.88,10.88,0,0,1-.06-1.14c4.61-6.7,11.27-11.33,17.65-15.91,18.81-13.49,38.2-26.09,62.27-28.07.06,11.77,0,23.54.21,35.3.37,24.57,15.79,41.1,41.41,44.55,18.48,2.49,39.39-12.27,46-32,3.23-9.67,1.29-19.61,2.59-29.34q0-10.2-.08-20.4c65.57,17.24,103.78,62.84,127.37,123.32,11.09,28.46,16.95,58.26,21.1,88.44C1310.24,746.87,1309.25,755.09,1302.32,761.77Z" transform="translate(-895.51 -104.39)"/><path class="cls-1" d="M929,761.77c-11.4-7.34-8.37-18-7-28.61,6.28-47.29,18.68-92.44,45.23-132.79a68.86,68.86,0,0,1,5-6c6.53,19.86,19.84,29.16,41.1,28.09,14.22-.72,18,3.4,20.52,18.3-20.58.58-24.15,4.27-24.15,25,0,25,.13,50-.07,75-.07,8.37,1.63,15.67,8.6,21Z" transform="translate(-895.51 -104.39)"/><path class="cls-2" d="M1018.31,761.77c-7-5.31-8.67-12.61-8.6-21,.2-25,.06-50,.07-75,0-20.77,3.57-24.46,24.15-25l18.8-.06c8,.08,15.92.39,23.87.2,10.94-.27,16.47,5.47,16.58,15.74.33,30.31.07,60.64.17,91,0,5.81-4.5,9.36-6.32,14.22Zm33.1-82.67V679h-6.86c-5.58,0-10,1.67-10.22,8.09s3.12,10.06,9.55,10.29a127.14,127.14,0,0,0,17.13-.2c5.19-.52,8.13-3.93,8-9.35s-3-8.48-8.48-8.72C1057.51,679,1054.46,679.1,1051.41,679.1Z" transform="translate(-895.51 -104.39)"/><path class="cls-3" d="M1500.9,476.87c0,15.64.44,31.3-.1,46.92-.81,23.31-19.94,39.8-43.77,38.45-23.36-1.33-40-19.19-38.21-41.14,1.81-22.68,26.85-39.14,51-32.16,10.56,3.05,11.87.19,11.39-9.26-.72-14.08-.36-28.22-.11-42.33.11-5.89-1.17-8.1-7.8-6.78-25,5-50.11,9.71-75.3,13.82-7.44,1.21-8.89,4.47-8.82,11.25.32,29,.22,58,.11,87-.08,19.84-11.44,34-30.63,38.73s-38.14-3.12-47.15-19.41c-7.24-13.1-6.08-25.9,2.78-37.54,10.7-14.06,25.72-19.91,42.52-15.34,11.33,3.09,13.23.56,12.72-10.05-.77-16-.29-32-.18-48.06s4.45-21.79,19.52-24.73q44.31-8.69,88.78-16.52c13-2.31,22.8,6.23,23.17,20.24C1501.22,445.58,1500.91,461.23,1500.9,476.87Z" transform="translate(-895.51 -104.39)"/><path class="cls-4" d="M1052.73,640.65l-18.8.06c-2.56-14.9-6.3-19-20.52-18.3-21.26,1.07-34.57-8.23-41.1-28.09.49-19.79-1.93-22.24-22-22.27-6.09,0-12.2.14-18.29-.13a37.73,37.73,0,0,1-36.53-36.69c-.5-20,15.6-37.61,35.84-38.8,8-.47,16-.1,24-.17,13.58-.11,17-3.39,17.1-16.66.14-13,.18-25.91.26-38.85a42.4,42.4,0,0,1,19.54,4.85c0,12.16.31,24.34-.11,36.49-.73,21.76-12.84,33.52-34.47,33.95-8,.16-16-.21-24,.18-11,.55-18.3,7.72-18.5,17.67s6.87,17.69,17.69,18.74a114.14,114.14,0,0,0,20.5.21c16.47-1.38,28.78,4.77,37.08,19a10.88,10.88,0,0,0,.06,1.14c4.66,26.2,4.66,26.2,30.94,30C1042.32,606.1,1052.58,618.46,1052.73,640.65Z" transform="translate(-895.51 -104.39)"/><path class="cls-4" d="M1051.41,679.1c3,0,6.1-.11,9.14,0,5.5.24,8.36,3.28,8.48,8.72s-2.83,8.83-8,9.35a127.14,127.14,0,0,1-17.13.2c-6.43-.23-9.81-3.85-9.55-10.29S1039,679,1044.55,679h6.86Z" transform="translate(-895.51 -104.39)"/><path class="cls-2" d="M1226.71,314c-3.8-17-14.65-18.88-30.42-17.45-26.8,2.45-51.68-6.25-74.61-19.84-3.77,2.18-2.39,5.6-2.7,8.34-1.93,16.84-9.72,20.83-24.82,12.57a244.3,244.3,0,0,1-40.33-27.79c-14.35-12.1-22.16-10.67-31.95,5.12-7.48,12-12.33,25.24-17.6,38.26l-37.76,8.62c0-21.75-.33-43.5,0-65.24.25-19.14,8.34-32.26,25-36.71,13.64-3.64,23.81-11.28,33.54-20.55q11.18-10.65,22.88-20.75c12.8-11.09,27.78-15.35,44.57-13.68,19.73,2,39.47,3.73,59.19,5.8,37.38,3.93,67,21.33,89,51.73,21.78,30,24.13,64.21,22.34,99.43Z" transform="translate(-895.51 -104.39)"/><path class="cls-1" d="M1324,365c-.43,10.27-.12,20.57-.67,30.82-.61,11.58-7,18.28-18.54,19.18-7.56.59-15.21,0-22.83,0-3.71,15.56-14,23.41-29.35,26.32-13.4,2.54-26.61,6-39.9,9.08a262.4,262.4,0,0,0,16.45-43.53c1.47-20.8,5.73-41.49,2.34-62.48-1.63-10.11-3.2-20.23-4.8-30.35l36.36,7.86c7.69,4.63,13.1,11.44,17.93,18.8l8-.54c3.62-24.61,4.59-49.1-.2-73.81-14.7-76-83.81-136.58-158.28-141.64-91.1-6.2-163.62,52-185.47,126-8.75,29.6-8.17,59.41-4.44,89.5l8.71.64c3.76-8.11,9.72-14.22,17.23-18.93l37.76-8.62c-9.27,30.79-7.6,62-3.8,93.35,4.85,14.87,9.12,30,17.43,43.47l-25.64-4.42a42.4,42.4,0,0,0-19.54-4.85c-13.06-4.06-21.14-13-25.28-25.8-6.81.07-13.64.51-20.43.14-13.6-.76-20.57-8.14-20.88-21.77-.19-8.7.58-17.46-.19-26.1-1.1-12.52,3.56-21.24,14.77-26.62-8.53-54.57.81-105.32,32.25-151.37,65.7-96.26,204.3-113.73,291.17-36.34,53.92,48,74.69,108.56,65.54,179.78-.33,2.65-.46,5.32-.68,8C1319.81,345.16,1324.51,353.32,1324,365Z" transform="translate(-895.51 -104.39)"/></svg>